# xmcd
#
# Track frame offsets:
#	150
#	19631
#	36551
#	52250
#	69443
#	83582
#	97740
#	119371
#	136564
#	151518
#	163361
#	180709
#	194200
#	215360
#	231393
#	246338
#	261904
#	278802
#	294980
#	310093
#
# Disc length: 4294 seconds
#
# Revision: 0
# Processed by: cddbd v1.5.1PL2 Copyright (c) Steve Scherf et al.
# Submitted via: dBpowerAMP V4.0
#
DISCID=1f10c414
DTITLE=Kenny Rogers - Classic Love Songs
DYEAR=2003
DGENRE=Country
TTITLE0=She Believes In Me
TTITLE1=You Decorated My Life
TTITLE2=Through The Years
TTITLE3=Lady
TTITLE4=You Are So Beautiful
TTITLE5=You Light Up My Life
TTITLE6=Have I told you Lately(That I Love You)
TTITLE7=Endless Love
TTITLE8=Crazy
TTITLE9=Always
TTITLE10=I Swear
TTITLE11=I Will Always Love you
TTITLE12=Always And Forever
TTITLE13=Evergreen
TTITLE14=Misty
TTITLE15=When I Fall In Love
TTITLE16=When A Man Loves A Woman
TTITLE17=Wind Beneath My Wings
TTITLE18=I Can't Help Falling In Love
TTITLE19=It Had To Be You
EXTD=My name is Patrick. This is a must have for Kenny Rogers fans.
EXTT0=
EXTT1=
EXTT2=
EXTT3=
EXTT4=
EXTT5=
EXTT6=
EXTT7=
EXTT8=
EXTT9=
EXTT10=
EXTT11=
EXTT12=
EXTT13=
EXTT14=
EXTT15=
EXTT16=
EXTT17=
EXTT18=
EXTT19=
PLAYORDER=
